<?xml version="1.0" encoding="iso-8859-1" ?>
<svg version="1.1" xmlns="http://www.w3.org/2000/svg" xmlns:xlink="http://www.w3.org/1999/xlink" 
    viewBox="0 0 1010 840" width="1010" height="840">
    
    
    <!-- ITEM 0 -->
    <g>
        <defs>
            <clipPath id="clip-path-id-viewbox-item-0">
                <rect x="0.0" y="0.0" width="677.183" height="530.414"/>
            </clipPath>
        </defs>
        <g transform="translate(18.0 34.0) rotate(0.0 476.5 373.0) scale(1.4073005376685475 1.4064485477381818)">
            <g clip-path="url(#clip-path-id-viewbox-item-0)" transform="translate(-0.0 -0.0)">
                
<g id="Layer_3-i0">
	<path style="fill:#e6f2fe;" d="M238.313,14.401c22.5-8.6,52.3-13.3,66.9,5.9c13.2,17.3,5.2,44.2,17.8,61.9   c14.4,20.2,45.6,16.2,68.4,6.6c45-19,83.4-51,127.6-71.8c56.5-26.6,149.7-30.5,157.7,51.9c2.5,25.6-5.4,50.9-13.5,75.3   s-16.9,49.2-16.2,74.9c0.8,28.4,13.1,55.7,12.9,84.2c-0.2,36-20.8,69.5-47.7,93.4c-35.6,31.6-84.5,55.5-127.5,75.2   c-44.4,20.3-91.5,34.7-139.1,45.3c-49.3,11-121.2,30.7-155.7-19.4c-10.9-15.9-15.3-35.2-18.8-54.1s-6.4-38.3-14.8-55.6   c-8.5-17.4-22.3-29.2-40.2-36.1c-18.8-7.2-39.4-1.2-59.1-5.2c-39.8-8-61.6-55-56.2-95.3c7.7-57.6,48.9-96.1,86.5-135.8   C129.413,71.101,181.213,36.201,238.313,14.401z"></path>
	<path style="fill:#e6f2fe;" d="M146.713,429.401c0.9,11.4-1.1,23.6-8.5,32.3c-7.4,8.8-20.9,12.8-30.8,7.1c-6.1-3.5-9.9-9.9-13.4-16   c-8.1-14-16.2-28.1-24.2-42.1c-13.7-23.8-6.4-56.7,26.2-45.3C123.013,374.901,144.413,400.701,146.713,429.401z"></path>
</g>

            </g>
        </g>
    </g>
    
    <!-- ITEM 1 -->
    <g>
        <defs>
            <clipPath id="clip-path-id-viewbox-item-1">
                <rect x="0.0" y="0.0" width="385.459" height="208.419"/>
            </clipPath>
        </defs>
        <g transform="translate(100.0 196.0) rotate(0.0 405.0 219.0) scale(2.101390809398665 2.1015358484591133)">
            <g clip-path="url(#clip-path-id-viewbox-item-1)" transform="translate(-0.0 -0.0)">
                
<circle fill="#ffffff" cx="28" cy="78.959" r="28"></circle>
<circle fill="#4d62da" cx="28" cy="78.959" r="15.135"></circle>
<circle fill="#ffffff" cx="178" cy="40.959" r="28"></circle>
<circle fill="#4d62da" cx="178" cy="40.959" r="15.135"></circle>
<circle fill="#ffffff" cx="306" cy="138.959" r="28"></circle>
<circle fill="#4d62da" cx="306" cy="138.959" r="15.135"></circle>
<circle fill="#ffffff" cx="124.5" cy="158.459" r="17.5"></circle>
<circle fill="#4d62da" cx="124.5" cy="158.459" r="9.459"></circle>
<circle fill="#ffffff" cx="302.5" cy="41.459" r="17.5"></circle>
<circle fill="#4d62da" cx="302.5" cy="41.459" r="9.459"></circle>
<circle fill="#4d62da" cx="78.5" cy="9.459" r="9.459"></circle>
<circle fill="#4d62da" cx="212" cy="120.959" r="9.459"></circle>
<circle fill="#4d62da" cx="39" cy="183.959" r="9.459"></circle>
<circle fill="#4d62da" cx="233" cy="198.959" r="9.459"></circle>
<circle fill="#4d62da" cx="376" cy="61.959" r="9.459"></circle>
<g>
	
		<rect x="99.5" y="-17.303" transform="matrix(0.2412 0.9705 -0.9705 0.2412 133.9683 -52.4135)" fill="#4d62da" width="2" height="153.525"></rect>
</g>
<g>
	
		<rect x="155.748" y="82.46" transform="matrix(0.355 0.9349 -0.9349 0.355 205.7309 -131.2723)" fill="#4d62da" width="84.504" height="2"></rect>
</g>
<g>
	
		<rect x="181.515" y="159.96" transform="matrix(0.2652 0.9642 -0.9642 0.2652 319.0681 -96.7378)" fill="#4d62da" width="82.97" height="2"></rect>
</g>
<g>
	
		<rect x="18.651" y="119.459" transform="matrix(0.7751 0.6319 -0.6319 0.7751 93.6572 -22.1916)" fill="#4d62da" width="118.697" height="2"></rect>
</g>
<g>
	
		<rect x="171" y="91.42" transform="matrix(0.3788 0.9255 -0.9255 0.3788 235.4539 -72.8597)" fill="#4d62da" width="2.001" height="95.079"></rect>
</g>
<g>
	
		<rect x="72.461" y="20.46" transform="matrix(0.9701 0.2425 -0.2425 0.9701 8.907 -29.4337)" fill="#4d62da" width="103.078" height="1.999"></rect>
</g>
<g>
	<rect x="185" y="39.959" fill="#4d62da" width="120" height="2"></rect>
</g>
<g>
	<rect x="303" y="44.959" fill="#4d62da" width="2" height="104"></rect>
</g>
<g>
	
		<rect x="341.5" y="51.485" transform="matrix(0.7655 0.6434 -0.6434 0.7655 144.9586 -196.8211)" fill="#4d62da" width="2" height="97.949"></rect>
</g>
<g>
	
		<rect x="80.5" y="127.159" transform="matrix(0.2823 0.9593 -0.9593 0.2823 222.9748 44.8677)" fill="#4d62da" width="1.999" height="88.6"></rect>
</g>

            </g>
        </g>
    </g>
    
    <!-- ITEM 2 -->
    <g>
        <defs>
            <clipPath id="clip-path-id-viewbox-item-2">
                <rect x="0.0" y="0.0" width="175.241" height="66.971"/>
            </clipPath>
        </defs>
        <g transform="translate(288.0 147.0) rotate(95.26902274056496 87.0 32.5) scale(0.9929183239082178 0.9705693509130817)">
            <g clip-path="url(#clip-path-id-viewbox-item-2)" transform="translate(-0.0 -0.0)">
                
<circle fill="#ffffff" cx="28" cy="38.971" r="28"></circle>
<circle fill="#4d62da" cx="28" cy="38.971" r="15.135"></circle>
<g>
	
		<rect x="99.5" y="-57.292" transform="matrix(0.2412 0.9705 -0.9705 0.2412 95.1598 -82.7586)" fill="#4d62da" width="2" height="153.525"></rect>
</g>

            </g>
        </g>
    </g>
    
    <!-- ITEM 3 -->
    <g>
        <defs>
            <clipPath id="clip-path-id-viewbox-item-3">
                <rect x="0.0" y="0.0" width="98.0" height="121.0"/>
            </clipPath>
        </defs>
        <g transform="translate(291.0 219.0) rotate(0.0 205.0 253.0) scale(4.183673469387755 4.181818181818182)">
            <g clip-path="url(#clip-path-id-viewbox-item-3)" transform="translate(-0.0 -0.0)">
                

<title>Network_1</title>
<g>
	<g>
		<rect x="46" y="77" width="6" height="35.3" style="fill:#1a1f38;"></rect>
		<rect y="108" width="98" height="6" style="fill:#1a1f38;"></rect>
		<circle cx="49" cy="111" r="10" style="fill:#95a1ef;"></circle>
	</g>
	<path d="M56.5,64v-2h-15v2c0,9-7,12-7,12v2h29v-2C63.5,76,56.5,73,56.5,64z" style="fill:#90A4AE;"></path>
	<path d="M64.5,76h-31c-1.4,0-2.5,1.1-2.5,2.5s1.1,2.5,2.5,2.5h31c1.4,0,2.5-1.1,2.5-2.5S65.9,76,64.5,76z" style="fill:#B0BEC5;"></path>
	<path d="M3,55V4c0-2.2,1.8-4,4-4h84c2.2,0,4,1.8,4,4v51H3z" style="fill:#29334e;"></path>
	<rect x="7" y="4" width="84" height="45" style="fill:#90CAF9;"></rect>
	<path d="M3,60v-7h92v7c0,2.2-1.8,4-4,4H7C4.8,64,3,62.2,3,60z" style="fill:#B0BEC5;"></path>
	<circle cx="89.5" cy="58.5" r="1.5" style="fill:#0c0c23;"></circle>
	<circle cx="83.5" cy="58.5" r="1.5" style="fill:#0c0c23;"></circle>
</g>

            </g>
        </g>
    </g>
    
    <!-- ITEM 4 -->
    <g>
        <defs>
            <clipPath id="clip-path-id-viewbox-item-4">
                <rect x="0.0" y="0.0" width="14.0" height="23.8"/>
            </clipPath>
        </defs>
        <g transform="translate(592.0 351.0) rotate(-22.071924583123483 60.5 104.0) scale(8.642857142857142 8.739495798319327)">
            <g clip-path="url(#clip-path-id-viewbox-item-4)" transform="translate(-0.0 -0.0)">
                

<title>mouse_pointer</title>
<g>
	<path d="M4.9,14.8l-4.4,3.6V1.2l12.4,11.9l-5.6,0.7l3.5,8.3l-2.4,1L4.9,14.8z" style="fill:#DFF0FE;"></path>
	<path d="M8.2,23.8l-3.5-8.2L0,19.5V0l14,13.4l-6,0.8l3.5,8.2L8.2,23.8z M5.1,14l3.6,8.5l1.5-0.6l-3.6-8.5l5.2-0.7   L1,2.3v15L5.1,14z" style="fill:#2f3a7a;"></path>
</g>

            </g>
        </g>
    </g>
    
    <!-- ITEM 5 -->
    <g>
        <defs>
            <clipPath id="clip-path-id-viewbox-item-5">
                <rect x="0.0" y="0.0" width="75.225" height="86.103"/>
            </clipPath>
        </defs>
        <g transform="translate(605.0 135.0) rotate(0.0 37.0 42.5) scale(0.9837155201063477 0.9871897611000778)">
            <g clip-path="url(#clip-path-id-viewbox-item-5)" transform="translate(-0.0 -0.0)">
                
<circle fill="#4d62da" cx="65.765" cy="9.46" r="9.459"></circle>
<g>
	
		<rect x="31.265" y="-1.015" transform="matrix(0.7655 0.6434 -0.6434 0.7655 38.4255 -9.5144)" fill="#4d62da" width="2" height="97.949"></rect>
</g>

            </g>
        </g>
    </g>
    
</svg>